<svg width="41" height="41" viewBox="0 0 41 41" fill="none" xmlns="http://www.w3.org/2000/svg">
<path d="M20.5 37.0998C29.7048 37.0998 37.1667 29.6378 37.1667 20.4331C37.1667 11.2283 29.7048 3.76642 20.5 3.76642C11.2953 3.76642 3.83337 11.2283 3.83337 20.4331C3.83337 29.6378 11.2953 37.0998 20.5 37.0998Z" fill="#35C359"/>
<path fill-rule="evenodd" clip-rule="evenodd" d="M17.5429 25.488C17.2722 25.4722 17.0195 25.3471 16.8428 25.1414L12.4837 20.0679C12.1238 19.649 12.1716 19.0177 12.5905 18.6577C13.0094 18.2978 13.6407 18.3456 14.0007 18.7645L17.6853 23.053L26.1594 15.2504C26.5657 14.8763 27.1983 14.9024 27.5724 15.3087C27.9465 15.715 27.9204 16.3476 27.5141 16.7217L18.2786 25.2254C18.0791 25.4091 17.8136 25.5039 17.5429 25.488Z" fill="white"/>
</svg>
