<svg width="41" height="41" viewBox="0 0 41 41" fill="none" xmlns="http://www.w3.org/2000/svg">
<path d="M20.4999 38.2109C30.3183 38.2109 38.2777 30.2515 38.2777 20.4331C38.2777 10.6147 30.3183 2.65533 20.4999 2.65533C10.6815 2.65533 2.72217 10.6147 2.72217 20.4331C2.72217 30.2515 10.6815 38.2109 20.4999 38.2109Z" fill="#FF4F50"/>
<g opacity="0.998">
<path fill-rule="evenodd" clip-rule="evenodd" d="M26.4679 26.4012C26.0774 26.7917 25.4443 26.7917 25.0537 26.4012L14.5311 15.8786C14.1406 15.488 14.1406 14.8549 14.5311 14.4643C14.9216 14.0738 15.5548 14.0738 15.9453 14.4643L26.4679 24.987C26.8585 25.3775 26.8585 26.0107 26.4679 26.4012Z" fill="white"/>
<path fill-rule="evenodd" clip-rule="evenodd" d="M26.4682 14.4638C26.8587 14.8543 26.8587 15.4875 26.4682 15.878L15.9455 26.4007C15.555 26.7912 14.9218 26.7912 14.5313 26.4007C14.1408 26.0101 14.1408 25.377 14.5313 24.9864L25.054 14.4638C25.4445 14.0733 26.0777 14.0733 26.4682 14.4638Z" fill="white"/>
</g>
</svg>
