<svg width="32" height="33" viewBox="0 0 32 33" fill="none" xmlns="http://www.w3.org/2000/svg">
<mask id="path-1-inside-1_11325_13172" fill="white">
<path fill-rule="evenodd" clip-rule="evenodd" d="M16.3592 6.2664L19.2634 12.442C19.2921 12.5029 19.3344 12.5555 19.3867 12.5955C19.4391 12.6354 19.4998 12.6614 19.5638 12.6713L26.0577 13.6614C26.1316 13.6727 26.201 13.7055 26.2581 13.756C26.3152 13.8066 26.3576 13.8729 26.3806 13.9474C26.4036 14.022 26.4063 14.1018 26.3883 14.1779C26.3704 14.2539 26.3325 14.3232 26.2789 14.3778L21.5751 19.1836C21.5287 19.2311 21.494 19.2896 21.474 19.3543C21.454 19.419 21.4493 19.4878 21.4604 19.5547L22.5705 26.3422C22.5831 26.4194 22.5749 26.4988 22.5468 26.5713C22.5187 26.6439 22.4718 26.7068 22.4114 26.7528C22.3511 26.7989 22.2796 26.8263 22.2052 26.832C22.1307 26.8377 22.0562 26.8214 21.9902 26.7849L16.1858 23.5796C16.1283 23.5479 16.0644 23.5313 15.9994 23.5313C15.9345 23.5313 15.8705 23.5479 15.813 23.5796L10.0059 26.7849C9.93985 26.8214 9.86537 26.8377 9.79093 26.832C9.71648 26.8263 9.64503 26.7989 9.58466 26.7528C9.52429 26.7068 9.4774 26.6439 9.4493 26.5713C9.42119 26.4988 9.413 26.4194 9.42563 26.3422L10.5343 19.5547C10.5453 19.4878 10.5406 19.419 10.5206 19.3543C10.5006 19.2897 10.466 19.2311 10.4197 19.1836L5.72126 14.3764C5.66773 14.3218 5.62983 14.2525 5.61186 14.1764C5.59388 14.1004 5.59656 14.0205 5.61958 13.946C5.64259 13.8714 5.68503 13.8051 5.7421 13.7546C5.79916 13.704 5.86857 13.6713 5.94246 13.66L12.4364 12.6698C12.5004 12.66 12.5611 12.6339 12.6135 12.594C12.6658 12.5541 12.7081 12.5014 12.7368 12.4406L15.641 6.2664C15.6741 6.19634 15.7252 6.13737 15.7885 6.09615C15.8518 6.05492 15.9249 6.03308 15.9994 6.03308C16.0739 6.03308 16.147 6.05492 16.2103 6.09615C16.2736 6.13737 16.3247 6.19634 16.3578 6.2664"/>
</mask>
<path fill-rule="evenodd" clip-rule="evenodd" d="M16.3592 6.2664L19.2634 12.442C19.2921 12.5029 19.3344 12.5555 19.3867 12.5955C19.4391 12.6354 19.4998 12.6614 19.5638 12.6713L26.0577 13.6614C26.1316 13.6727 26.201 13.7055 26.2581 13.756C26.3152 13.8066 26.3576 13.8729 26.3806 13.9474C26.4036 14.022 26.4063 14.1018 26.3883 14.1779C26.3704 14.2539 26.3325 14.3232 26.2789 14.3778L21.5751 19.1836C21.5287 19.2311 21.494 19.2896 21.474 19.3543C21.454 19.419 21.4493 19.4878 21.4604 19.5547L22.5705 26.3422C22.5831 26.4194 22.5749 26.4988 22.5468 26.5713C22.5187 26.6439 22.4718 26.7068 22.4114 26.7528C22.3511 26.7989 22.2796 26.8263 22.2052 26.832C22.1307 26.8377 22.0562 26.8214 21.9902 26.7849L16.1858 23.5796C16.1283 23.5479 16.0644 23.5313 15.9994 23.5313C15.9345 23.5313 15.8705 23.5479 15.813 23.5796L10.0059 26.7849C9.93985 26.8214 9.86537 26.8377 9.79093 26.832C9.71648 26.8263 9.64503 26.7989 9.58466 26.7528C9.52429 26.7068 9.4774 26.6439 9.4493 26.5713C9.42119 26.4988 9.413 26.4194 9.42563 26.3422L10.5343 19.5547C10.5453 19.4878 10.5406 19.419 10.5206 19.3543C10.5006 19.2897 10.466 19.2311 10.4197 19.1836L5.72126 14.3764C5.66773 14.3218 5.62983 14.2525 5.61186 14.1764C5.59388 14.1004 5.59656 14.0205 5.61958 13.946C5.64259 13.8714 5.68503 13.8051 5.7421 13.7546C5.79916 13.704 5.86857 13.6713 5.94246 13.66L12.4364 12.6698C12.5004 12.66 12.5611 12.6339 12.6135 12.594C12.6658 12.5541 12.7081 12.5014 12.7368 12.4406L15.641 6.2664C15.6741 6.19634 15.7252 6.13737 15.7885 6.09615C15.8518 6.05492 15.9249 6.03308 15.9994 6.03308C16.0739 6.03308 16.147 6.05492 16.2103 6.09615C16.2736 6.13737 16.3247 6.19634 16.3578 6.2664" fill="#FFB900"/>
<path d="M19.2634 12.442L18.3585 12.8676L18.3588 12.8683L19.2634 12.442ZM19.5638 12.6713L19.4113 13.6596L19.4131 13.6599L19.5638 12.6713ZM26.0577 13.6614L26.2089 12.6729L26.2085 12.6728L26.0577 13.6614ZM26.2789 14.3778L25.5647 13.6779L25.5643 13.6783L26.2789 14.3778ZM21.5751 19.1836L20.8604 18.4841L20.8603 18.4842L21.5751 19.1836ZM21.4604 19.5547L22.4473 19.3933L22.4471 19.392L21.4604 19.5547ZM22.5705 26.3422L21.5836 26.5036L21.5836 26.5037L22.5705 26.3422ZM21.9902 26.7849L21.5068 27.6603L21.5075 27.6607L21.9902 26.7849ZM16.1858 23.5796L15.7022 24.4549L15.7024 24.455L16.1858 23.5796ZM15.813 23.5796L16.2963 24.4551L16.2966 24.4549L15.813 23.5796ZM10.0059 26.7849L10.4886 27.6608L10.4892 27.6604L10.0059 26.7849ZM9.58466 26.7528L8.97808 27.5478L9.58466 26.7528ZM9.42563 26.3422L10.4125 26.5037L10.4126 26.5034L9.42563 26.3422ZM10.5343 19.5547L11.5213 19.7159L11.5213 19.7158L10.5343 19.5547ZM10.4197 19.1836L11.1356 18.4855L11.1348 18.4847L10.4197 19.1836ZM5.72126 14.3764L6.43642 13.6774L6.43548 13.6765L5.72126 14.3764ZM5.94246 13.66L5.79174 12.6714L5.79126 12.6714L5.94246 13.66ZM12.4364 12.6698L12.5871 13.6584L12.5889 13.6581L12.4364 12.6698ZM12.7368 12.4406L13.6413 12.8669L13.6416 12.8662L12.7368 12.4406ZM15.641 6.2664L14.7368 5.83917L14.7361 5.84076L15.641 6.2664ZM15.9994 6.03308V7.03308V6.03308ZM15.4543 6.69197L18.3585 12.8676L20.1684 12.0165L17.2641 5.84084L15.4543 6.69197ZM18.3588 12.8683C18.4543 13.0708 18.5974 13.251 18.78 13.3904L19.9934 11.8005C20.0714 11.86 20.1299 11.9349 20.168 12.0157L18.3588 12.8683ZM18.78 13.3904C18.963 13.53 19.1793 13.6238 19.4113 13.6596L19.7164 11.683C19.8203 11.699 19.9152 11.7408 19.9934 11.8005L18.78 13.3904ZM19.4131 13.6599L25.907 14.65L26.2085 12.6728L19.7146 11.6827L19.4131 13.6599ZM25.9065 14.6499C25.7863 14.6315 25.6789 14.5789 25.595 14.5045L26.9212 13.0075C26.7232 12.832 26.4769 12.7139 26.2089 12.6729L25.9065 14.6499ZM25.595 14.5045C25.5115 14.4306 25.4548 14.3387 25.4251 14.2424L27.3361 13.6524C27.2604 13.4071 27.1188 13.1825 26.9212 13.0075L25.595 14.5045ZM25.4251 14.2424C25.3955 14.1464 25.3922 14.045 25.4151 13.9479L27.3615 14.4078C27.4204 14.1586 27.4118 13.8975 27.3361 13.6524L25.4251 14.2424ZM25.4151 13.9479C25.4381 13.8507 25.4878 13.7563 25.5647 13.6779L26.9931 15.0777C27.1771 14.89 27.3026 14.6571 27.3615 14.4078L25.4151 13.9479ZM25.5643 13.6783L20.8604 18.4841L22.2897 19.8831L26.9936 15.0773L25.5643 13.6783ZM20.8603 18.4842C20.7004 18.6476 20.5845 18.8456 20.5186 19.059L22.4294 19.6496C22.4034 19.7337 22.3569 19.8145 22.2898 19.883L20.8603 18.4842ZM20.5186 19.059C20.4526 19.2723 20.4375 19.498 20.4737 19.7175L22.4471 19.392C22.4612 19.4775 22.4554 19.5656 22.4294 19.6496L20.5186 19.059ZM20.4735 19.7161L21.5836 26.5036L23.5574 26.1808L22.4473 19.3933L20.4735 19.7161ZM21.5836 26.5037C21.5676 26.4059 21.5776 26.3048 21.6143 26.2102L23.4793 26.9325C23.5722 26.6927 23.5986 26.4328 23.5573 26.1807L21.5836 26.5037ZM21.6143 26.2102C21.651 26.1153 21.7149 26.0264 21.8049 25.9578L23.018 27.5478C23.2287 27.3871 23.3864 27.1725 23.4793 26.9325L21.6143 26.2102ZM21.8049 25.9578C21.8953 25.8888 22.0075 25.8441 22.1291 25.8349L22.2812 27.8291C22.5518 27.8084 22.8068 27.709 23.018 27.5478L21.8049 25.9578ZM22.1291 25.8349C22.2509 25.8256 22.3704 25.8527 22.4728 25.9091L21.5075 27.6607C21.7421 27.79 22.0105 27.8497 22.2812 27.8291L22.1291 25.8349ZM22.4736 25.9095L16.6692 22.7042L15.7024 24.455L21.5068 27.6603L22.4736 25.9095ZM16.6694 22.7043C16.4656 22.5917 16.2354 22.5313 15.9994 22.5313V24.5313C15.8933 24.5313 15.7911 24.504 15.7022 24.4549L16.6694 22.7043ZM15.9994 22.5313C15.7634 22.5313 15.5333 22.5917 15.3294 22.7043L16.2966 24.4549C16.2077 24.504 16.1055 24.5313 15.9994 24.5313V22.5313ZM15.3298 22.7041L9.52269 25.9095L10.4892 27.6604L16.2963 24.4551L15.3298 22.7041ZM9.52328 25.9091C9.62572 25.8527 9.74516 25.8256 9.86697 25.8349L9.71489 27.8291C9.98559 27.8497 10.254 27.79 10.4886 27.6607L9.52328 25.9091ZM9.86697 25.8349C9.98864 25.8441 10.1008 25.8888 10.1912 25.9578L8.97808 27.5478C9.18928 27.709 9.44432 27.8084 9.71489 27.8291L9.86697 25.8349ZM10.1912 25.9578C10.2812 26.0264 10.3451 26.1153 10.3818 26.2102L8.51679 26.9325C8.60973 27.1725 8.76738 27.3871 8.97808 27.5478L10.1912 25.9578ZM10.3818 26.2102C10.4184 26.3048 10.4285 26.4059 10.4125 26.5037L8.43876 26.1807C8.39749 26.4328 8.42394 26.6927 8.51679 26.9325L10.3818 26.2102ZM10.4126 26.5034L11.5213 19.7159L9.54743 19.3935L8.43871 26.181L10.4126 26.5034ZM11.5213 19.7158C11.557 19.4968 11.5417 19.2718 11.476 19.0591L9.56516 19.6496C9.53937 19.5662 9.53352 19.4787 9.5474 19.3937L11.5213 19.7158ZM11.476 19.0591C11.4102 18.8462 11.2948 18.6488 11.1356 18.4855L9.70366 19.8817C9.63713 19.8135 9.59099 19.7332 9.56516 19.6496L11.476 19.0591ZM11.1348 18.4847L6.43642 13.6774L5.00611 15.0753L9.70449 19.8826L11.1348 18.4847ZM6.43548 13.6765C6.51237 13.7549 6.56209 13.8493 6.58506 13.9465L4.63865 14.4064C4.69756 14.6557 4.82309 14.8886 5.00705 15.0763L6.43548 13.6765ZM6.58506 13.9465C6.60799 14.0435 6.60472 14.145 6.57507 14.241L4.66408 13.651C4.5884 13.8961 4.57978 14.1572 4.63865 14.4064L6.58506 13.9465ZM6.57507 14.241C6.54536 14.3372 6.48867 14.4292 6.4052 14.5031L5.07899 13.0061C4.8814 13.1811 4.73983 13.4056 4.66408 13.651L6.57507 14.241ZM6.4052 14.5031C6.32128 14.5775 6.21388 14.6301 6.09366 14.6485L5.79126 12.6714C5.52325 12.7124 5.27704 12.8306 5.07899 13.0061L6.4052 14.5031ZM6.09319 14.6485L12.5871 13.6584L12.2856 11.6813L5.79174 12.6714L6.09319 14.6485ZM12.5889 13.6581C12.8209 13.6223 13.0372 13.5286 13.2201 13.389L12.0068 11.7991C12.085 11.7393 12.1799 11.6976 12.2838 11.6816L12.5889 13.6581ZM13.2201 13.389C13.4028 13.2496 13.5459 13.0694 13.6413 12.8669L11.8322 12.0143C11.8702 11.9335 11.9288 11.8586 12.0068 11.7991L13.2201 13.389ZM13.6416 12.8662L16.5459 6.69205L14.7361 5.84076L11.8319 12.0149L13.6416 12.8662ZM16.5451 6.69363C16.5012 6.78659 16.4302 6.87168 16.3341 6.93422L15.243 5.25808C15.0202 5.40306 14.847 5.60609 14.7368 5.83917L16.5451 6.69363ZM16.3341 6.93422C16.2375 6.9971 16.1214 7.03308 15.9994 7.03308V5.03308C15.7283 5.03308 15.4662 5.11275 15.243 5.25808L16.3341 6.93422ZM15.9994 7.03308C15.8774 7.03308 15.7613 6.9971 15.6647 6.93422L16.7559 5.25808C16.5326 5.11275 16.2705 5.03308 15.9994 5.03308V7.03308ZM15.6647 6.93422C15.5687 6.87168 15.4976 6.78659 15.4537 6.69363L17.262 5.83917C17.1518 5.60609 16.9786 5.40306 16.7559 5.25808L15.6647 6.93422Z" fill="#FFB900" mask="url(#path-1-inside-1_11325_13172)"/>
</svg>
