<svg width="81" height="80" viewBox="0 0 81 80" fill="none" xmlns="http://www.w3.org/2000/svg">
<rect width="81" height="80" fill="#272727"/>
<g clip-path="url(#clip0_11306_10909)">
<rect width="1366" height="8280" transform="translate(-1098 -785)" fill="white"/>
<path fill-rule="evenodd" clip-rule="evenodd" d="M29.9025 19.7249C30.4519 19.6917 31.1546 19.877 31.6227 20.5221C31.9516 20.9701 32.5804 21.8436 33.2396 22.7595L33.2401 22.7604C33.5681 23.216 33.9036 23.6821 34.2135 24.1115C35.1823 25.4302 36.2591 26.9107 36.645 27.448C37.066 28.027 37.1047 28.6694 37.0643 29.1051C37.0221 29.5598 36.8787 29.9922 36.7114 30.3645C36.3741 31.115 35.8201 31.886 35.1503 32.5556C34.7791 32.9267 34.5735 33.2929 34.4922 33.5371L46.834 45.8789C47.0865 45.7557 47.4249 45.5276 47.7735 45.179C48.4318 44.5208 49.1771 43.9688 49.8911 43.621C50.2433 43.4495 50.6561 43.2943 51.0917 43.2339C51.4952 43.1777 52.1793 43.1703 52.7966 43.624C52.9871 43.7641 53.3588 44.0341 53.8362 44.3809L53.8377 44.382L53.8381 44.3822C54.5352 44.8886 55.4574 45.5585 56.3696 46.2263C57.2745 46.8882 58.1803 47.5489 59.087 48.2084C59.5287 48.5299 59.8865 48.7903 60.1069 48.9516C60.8707 49.5105 60.9242 50.3505 60.8422 50.8283C60.7693 51.253 60.5763 51.6075 60.4366 51.8331C60.1371 52.3176 59.6777 52.8424 59.1709 53.3554C58.1302 54.409 56.5927 55.7076 54.8081 57.0216C52.4439 58.7628 49.1507 58.7137 46.0614 57.7589C42.9034 56.7831 39.5793 54.7621 36.7763 51.9593L28.5724 43.7552C25.77 40.9528 23.7432 37.6266 22.757 34.4642C21.7923 31.3706 21.728 28.0726 23.4474 25.6947C24.754 23.8878 26.0703 22.3423 27.1605 21.3116C27.6894 20.8116 28.2491 20.3515 28.7845 20.0657C29.0398 19.9295 29.4346 19.7528 29.9025 19.7249ZM26.1611 27.657C27.3912 25.9556 28.5713 24.5864 29.4612 23.7449C29.5326 23.6773 29.605 23.6107 29.6783 23.5451C29.9307 23.8949 30.2135 24.2878 30.5047 24.6925C30.8374 25.1546 31.181 25.632 31.5021 26.077L31.5105 26.0886C32.2254 27.0619 32.9373 28.0375 33.6461 29.0153C33.5004 29.3291 33.2083 29.7615 32.7823 30.1876C32.0688 30.9012 31.5205 31.7619 31.2641 32.6423C31.0271 33.4555 30.9419 34.7226 31.8783 35.6592L44.8589 48.6398C45.8597 49.6406 47.2202 49.3187 47.8589 49.08C48.6573 48.7814 49.4576 48.2309 50.1415 47.5468C50.5577 47.1306 50.9745 46.8324 51.2867 46.6677L51.863 47.0865L51.8653 47.0882C52.5754 47.6041 53.5116 48.2841 54.3914 48.9284C55.2511 49.5571 56.1116 50.1848 56.9728 50.8116C56.9157 50.872 56.8543 50.9354 56.7884 51.0019C55.9099 51.8914 54.5192 53.0756 52.8223 54.3252C51.7054 55.1477 49.7023 55.379 47.0502 54.5595C44.4666 53.7609 41.6041 52.0508 39.1443 49.5913L30.9404 41.3872C28.4803 38.9273 26.7626 36.0599 25.954 33.4672C25.1241 30.8058 25.3438 28.7874 26.1611 27.657ZM30.3879 23.0073C30.3833 23.0099 30.3785 23.0121 30.3735 23.0138L30.3879 23.0073ZM57.6048 50.0443L57.6115 50.0311L57.6078 50.038L57.6048 50.0443Z" fill="url(#paint0_linear_11306_10909)"/>
<path fill-rule="evenodd" clip-rule="evenodd" d="M41.3372 6.13953C23.2018 6.13953 8.5 20.8413 8.5 38.9767C8.5 46.3429 10.9273 53.1466 15.0248 58.6253L12.8669 70.1096C12.812 70.4016 12.8358 70.7029 12.9359 70.9826C13.036 71.2624 13.2086 71.5105 13.4362 71.7014C13.6638 71.8924 13.9381 72.0194 14.231 72.0693C14.5239 72.1193 14.8248 72.0904 15.1028 71.9857L25.8475 67.938C30.4634 70.4115 35.7387 71.8139 41.3372 71.8139C59.4727 71.8139 74.1744 57.1122 74.1744 38.9767C74.1744 20.8413 59.4727 6.13953 41.3372 6.13953ZM11.8488 38.9767C11.8488 22.6908 25.0513 9.48836 41.3372 9.48836C57.6232 9.48836 70.8256 22.6908 70.8256 38.9767C70.8256 55.2627 57.6232 68.4651 41.3372 68.4651C36.0505 68.4651 31.0935 67.0753 26.8062 64.6426C26.5927 64.5214 26.355 64.4486 26.1102 64.4295C25.8654 64.4104 25.6193 64.4453 25.3895 64.5319L16.7078 67.8024L18.454 58.5096C18.4981 58.2752 18.4916 58.0342 18.435 57.8026C18.3783 57.5709 18.2729 57.3541 18.1257 57.1665C14.193 52.1555 11.8488 45.8422 11.8488 38.9767Z" fill="url(#paint1_linear_11306_10909)"/>
</g>
<defs>
<linearGradient id="paint0_linear_11306_10909" x1="29.9838" y1="20.7863" x2="65.1981" y2="60.283" gradientUnits="userSpaceOnUse">
<stop stop-color="#9A4EFF"/>
<stop offset="1" stop-color="#FFB900"/>
</linearGradient>
<linearGradient id="paint1_linear_11306_10909" x1="29.9837" y1="20.7862" x2="65.198" y2="60.283" gradientUnits="userSpaceOnUse">
<stop stop-color="#9A4EFF"/>
<stop offset="1" stop-color="#FFB900"/>
</linearGradient>
<clipPath id="clip0_11306_10909">
<rect width="1366" height="8280" fill="white" transform="translate(-1098 -785)"/>
</clipPath>
</defs>
</svg>
