<svg width="81" height="80" viewBox="0 0 81 80" fill="none" xmlns="http://www.w3.org/2000/svg">
<rect width="81" height="80" fill="#272727"/>
<g clip-path="url(#clip0_11306_10909)">
<rect width="1366" height="8280" transform="translate(-184 -785)" fill="white"/>
<path fill-rule="evenodd" clip-rule="evenodd" d="M39.4823 8.75462C39.7925 8.4712 40.1979 8.31474 40.618 8.3163C41.0381 8.31785 41.4424 8.47729 41.7504 8.76299L49.1325 15.6095V12.9861C49.1325 12.542 49.309 12.1161 49.623 11.8021C49.937 11.4881 50.3629 11.3116 50.807 11.3116H59.5698C60.0138 11.3116 60.4397 11.4881 60.7538 11.8021C61.0678 12.1161 61.2442 12.542 61.2442 12.9861V26.8421L66.306 31.5364C66.3327 31.5597 66.3587 31.5839 66.3839 31.6089L72.0016 36.8188C72.1628 36.9683 72.293 37.1481 72.3847 37.348C72.4765 37.5478 72.5279 37.7638 72.5362 37.9835C72.5445 38.2032 72.5094 38.4225 72.433 38.6286C72.3565 38.8348 72.2402 39.0239 72.0907 39.1851C71.9412 39.3464 71.7614 39.4766 71.5615 39.5683C71.3617 39.66 71.1457 39.7115 70.926 39.7198C70.7063 39.728 70.487 39.693 70.2809 39.6165C70.0747 39.5401 69.8856 39.4238 69.7244 39.2742L66.8816 36.6378V69.8142C66.894 69.8961 66.9002 69.9798 66.9004 70.0651C66.9004 70.5092 66.724 70.9351 66.4099 71.2491C66.0959 71.5631 65.67 71.7396 65.226 71.7396H15.6818C15.2377 71.7396 14.8118 71.5631 14.4978 71.2491C14.1838 70.9351 14.0073 70.5092 14.0073 70.0651V36.5727L11.0622 39.264C10.7344 39.5635 10.301 39.7205 9.85745 39.7005C9.41387 39.6806 8.99638 39.4852 8.69683 39.1574C8.39725 38.8296 8.24016 38.3962 8.26012 37.9526C8.28007 37.5089 8.47544 37.0914 8.80325 36.7918L14.4345 31.6454C14.5093 31.5621 14.5917 31.4868 14.6816 31.4197L39.4823 8.75462ZM17.3562 33.5122V68.3907H31.1605V44.3535C31.1605 43.9094 31.3369 43.4835 31.6509 43.1695C31.9649 42.8555 32.3908 42.6791 32.8349 42.6791H48.3884C48.8324 42.6791 49.2583 42.8555 49.5724 43.1695C49.8864 43.4835 50.0628 43.9094 50.0628 44.3535V68.3907H63.5326V33.5319L40.6032 12.2668L17.3562 33.5122ZM46.7139 68.3907V46.0279H34.5093V68.3907H46.7139ZM57.8953 23.7364L52.4814 18.7152V14.6605H57.8953V23.7364Z" fill="url(#paint0_linear_11306_10909)"/>
</g>
<defs>
<linearGradient id="paint0_linear_11306_10909" x1="29.2857" y1="22.4011" x2="63.0756" y2="60.9749" gradientUnits="userSpaceOnUse">
<stop stop-color="#9A4EFF"/>
<stop offset="1" stop-color="#FFB900"/>
</linearGradient>
<clipPath id="clip0_11306_10909">
<rect width="1366" height="8280" fill="white" transform="translate(-184 -785)"/>
</clipPath>
</defs>
</svg>
